PathFileType	4	(X/Y/Z)	output.trc
DataRate	CameraRate	NumFrames	NumMarkers	Units	OrigDataRate	OrigDataStartFrame	OrigNumFrames
100	100	13	23	m	100	2624	3498
Frame#	Time	C7			T8			EL			EM			US			RS			AA			Fore_Clus_1			Fore_Clus_2			Fore_Clus_3			Fore_Clus_4			Hum_Clus_1			Hum_Clus_2			Hum_Clus_3			Hum_Clus_4			Thor_Clus_1			Thor_Clus_2			Thor_Clus_3			Thor_Clus_4			IJ			PX			GH			Thor_Clus_5		
		X1	Y1	Z1	X2	Y2	Z2	X3	Y3	Z3	X4	Y4	Z4	X5	Y5	Z5	X6	Y6	Z6	X7	Y7	Z7	X8	Y8	Z8	X9	Y9	Z9	X10	Y10	Z10	X11	Y11	Z11	X12	Y12	Z12	X13	Y13	Z13	X14	Y14	Z14	X15	Y15	Z15	X16	Y16	Z16	X17	Y17	Z17	X18	Y18	Z18	X19	Y19	Z19	X20	Y20	Z20	X21	Y21	Z21	X22	Y22	Z22	X23	Y23	Z23
2623	26.230000	-0.073686	1.471619	-0.110286	-0.111813	1.239708	-0.074250	-0.037595	1.671327	0.226272	0.005475	1.629185	0.251566	0.026870	1.869236	0.353722	0.039173	1.900615	0.311386	-0.149874	1.432123	0.095719	-0.022743	1.820236	0.320822	-0.008956	1.866375	0.346765	-0.009124	1.879927	0.322060	-0.023375	1.841916	0.281274	-0.085249	1.624171	0.143931	-0.112517	1.593967	0.188987	-0.148429	1.554595	0.154218	-0.121136	1.572168	0.105123	0.088575	1.390934	-0.017893	0.076376	1.361583	0.060222	0.062530	1.397885	0.017572	0.114208	1.351172	0.008847	0.018205	1.398503	-0.030158	0.064094	1.202547	0.060008	-0.123621	1.420109	0.069566	0.064959	1.379087	0.048265
2624	26.240000	-0.073360	1.471809	-0.110275	-0.111827	1.240072	-0.073486	-0.039673	1.675223	0.221751	0.003602	1.633821	0.247903	0.022722	1.876188	0.345413	0.034905	1.906818	0.302498	-0.149481	1.433080	0.095900	-0.026344	1.826191	0.313340	-0.013103	1.872925	0.338379	-0.013255	1.885999	0.313371	-0.027063	1.847034	0.273398	-0.086794	1.626245	0.140222	-0.113994	1.596714	0.185642	-0.149520	1.556484	0.151395	-0.122692	1.573472	0.102339	0.088808	1.391147	-0.017714	0.076618	1.362111	0.060602	0.062853	1.398428	0.017565	0.114454	1.351446	0.009158	0.018466	1.398801	-0.029973	0.064104	1.203058	0.060780	-0.123653	1.420689	0.069346	0.065240	1.379529	0.048514
2625	26.250000	-0.073040	1.471971	-0.110293	-0.111822	1.240415	-0.072706	-0.041790	1.678992	0.217192	0.001702	1.638346	0.244158	0.018516	1.882886	0.337062	0.030549	1.912776	0.293586	-0.149109	1.434045	0.096051	-0.030100	1.831810	0.305763	-0.017240	1.879088	0.329977	-0.017457	1.891707	0.304730	-0.030929	1.851898	0.265525	-0.088307	1.628260	0.136364	-0.115480	1.599342	0.182227	-0.150685	1.558320	0.148683	-0.123751	1.574502	0.099292	0.089048	1.391369	-0.017594	0.076833	1.362704	0.060822	0.062953	1.398558	0.017820	0.114671	1.351708	0.009407	0.018723	1.399101	-0.029794	0.064127	1.203598	0.061592	-0.123719	1.421272	0.069084	0.065523	1.380034	0.048697
2626	26.260000	-0.072730	1.472121	-0.110329	-0.111810	1.240753	-0.071906	-0.043942	1.682627	0.212598	-0.000223	1.642749	0.240332	0.014264	1.889327	0.328674	0.026114	1.918485	0.284655	-0.148749	1.435028	0.096185	-0.033882	1.837238	0.298297	-0.021458	1.885134	0.321605	-0.021757	1.897185	0.296095	-0.034790	1.856540	0.257622	-0.089997	1.630201	0.132534	-0.117007	1.601910	0.178857	-0.151804	1.559980	0.145879	-0.124809	1.575658	0.096303	0.089257	1.391591	-0.017418	0.077137	1.363273	0.060993	0.063261	1.398964	0.017953	0.114855	1.351982	0.009657	0.018973	1.399411	-0.029618	0.064154	1.204169	0.062436	-0.123818	1.421852	0.068779	0.065782	1.380534	0.048864
2627	26.270000	-0.072434	1.472241	-0.110395	-0.111785	1.241067	-0.071084	-0.046137	1.686128	0.207977	-0.002176	1.647031	0.236433	0.009969	1.895507	0.320259	0.021608	1.923944	0.275714	-0.148411	1.436020	0.096289	-0.037642	1.842410	0.290785	-0.025646	1.890812	0.313254	-0.026078	1.902460	0.287542	-0.038748	1.860979	0.249804	-0.091697	1.632004	0.128749	-0.118538	1.604324	0.175392	-0.152920	1.561517	0.143027	-0.126032	1.576602	0.093378	0.089799	1.392051	-0.017211	0.077404	1.363792	0.061246	0.063506	1.399341	0.018086	0.115068	1.352318	0.009952	0.019213	1.399720	-0.029450	0.064191	1.204771	0.063319	-0.123945	1.422426	0.068425	0.066024	1.381093	0.049115
2628	26.280000	-0.072154	1.472330	-0.110491	-0.111749	1.241359	-0.070242	-0.048377	1.689493	0.203335	-0.004162	1.651189	0.232467	0.005638	1.901425	0.311826	0.017039	1.929149	0.266773	-0.148093	1.437019	0.096365	-0.041410	1.847381	0.283345	-0.029940	1.896233	0.304872	-0.030694	1.907235	0.278980	-0.042803	1.865141	0.242001	-0.093450	1.633745	0.124957	-0.120112	1.606649	0.171947	-0.154195	1.563086	0.140406	-0.127287	1.577520	0.090463	0.090228	1.392428	-0.017018	0.077762	1.364369	0.061527	0.063742	1.399791	0.018222	0.115253	1.352659	0.010265	0.019442	1.400030	-0.029291	0.064237	1.205402	0.064240	-0.124095	1.422988	0.068021	0.066245	1.381629	0.049319
2629	26.290000	-0.071890	1.472396	-0.110609	-0.111710	1.241637	-0.069382	-0.050662	1.692718	0.198676	-0.006183	1.655217	0.228443	0.001280	1.907080	0.303380	0.012419	1.934101	0.257837	-0.147795	1.438029	0.096418	-0.045325	1.852068	0.275856	-0.034313	1.901428	0.296576	-0.034976	1.912178	0.270401	-0.046905	1.869180	0.234228	-0.095295	1.635399	0.121154	-0.121866	1.608773	0.168589	-0.155450	1.564590	0.137641	-0.128592	1.578354	0.087488	0.090394	1.392638	-0.016905	0.078004	1.364979	0.061812	0.064017	1.400287	0.018362	0.115427	1.352990	0.010607	0.019659	1.400342	-0.029138	0.064285	1.206061	0.065190	-0.124268	1.423533	0.067568	0.066490	1.382193	0.049541
2630	26.300000	-0.071644	1.472422	-0.110762	-0.111659	1.241883	-0.068508	-0.053001	1.695806	0.194006	-0.008248	1.659117	0.224369	-0.003102	1.912473	0.294932	0.007754	1.938797	0.248917	-0.147525	1.439036	0.096434	-0.049598	1.856411	0.268715	-0.038676	1.906379	0.288277	-0.039553	1.916639	0.262016	-0.051183	1.872725	0.226524	-0.097054	1.636956	0.117467	-0.123489	1.610866	0.165225	-0.156934	1.565892	0.135192	-0.130010	1.579170	0.084646	0.090573	1.392891	-0.016735	0.078155	1.365625	0.062077	0.064197	1.400786	0.018500	0.115593	1.353366	0.010942	0.019863	1.400646	-0.028998	0.064339	1.206742	0.066174	-0.124456	1.424056	0.067066	0.066692	1.382763	0.049745
2631	26.310000	-0.071412	1.472429	-0.110935	-0.111609	1.242117	-0.067626	-0.055386	1.698753	0.189331	-0.010356	1.662882	0.220257	-0.007501	1.917603	0.286488	0.003059	1.943240	0.240017	-0.147277	1.440047	0.096426	-0.053437	1.860739	0.261205	-0.043048	1.911095	0.280008	-0.044018	1.920904	0.253548	-0.055078	1.876483	0.218785	-0.099132	1.638451	0.113659	-0.125239	1.612860	0.161873	-0.158337	1.567148	0.132494	-0.131485	1.579804	0.081783	0.090369	1.392980	-0.016638	0.078249	1.366247	0.062415	0.064429	1.401266	0.018628	0.115747	1.353802	0.011326	0.020052	1.400949	-0.028866	0.064388	1.207443	0.067176	-0.124664	1.424552	0.066521	0.066820	1.383333	0.049995
2632	26.320000	-0.071195	1.472406	-0.111137	-0.111555	1.242329	-0.066746	-0.057821	1.701558	0.184655	-0.012513	1.666512	0.216116	-0.011914	1.922475	0.278054	-0.001658	1.947431	0.231146	-0.147058	1.441051	0.096382	-0.057322	1.864823	0.253805	-0.047462	1.915505	0.271717	-0.048498	1.924903	0.245107	-0.059314	1.879810	0.211149	-0.101259	1.639787	0.109851	-0.126990	1.614725	0.158490	-0.159764	1.568212	0.129831	-0.133004	1.580406	0.078956	0.090601	1.393311	-0.016497	0.078331	1.366867	0.062798	0.064602	1.401721	0.018762	0.115859	1.354196	0.011673	0.020227	1.401244	-0.028744	0.064434	1.208158	0.068197	-0.124887	1.425016	0.065937	0.067031	1.383996	0.050190
2633	26.330000	-0.070989	1.472359	-0.111364	-0.111498	1.242523	-0.065874	-0.060299	1.704223	0.179984	-0.014718	1.670005	0.211957	-0.016333	1.927093	0.269641	-0.006387	1.951372	0.222313	-0.146868	1.442044	0.096304	-0.061197	1.868697	0.246441	-0.051764	1.919714	0.263429	-0.052949	1.928705	0.236742	-0.063314	1.882956	0.203561	-0.103262	1.641052	0.106159	-0.128660	1.616372	0.154999	-0.161277	1.569213	0.127183	-0.134574	1.580929	0.076107	0.090766	1.393641	-0.016366	0.078480	1.367536	0.063104	0.064813	1.402246	0.018912	0.115975	1.354611	0.011980	0.020389	1.401532	-0.028634	0.064471	1.208882	0.069228	-0.125127	1.425445	0.065320	0.067166	1.384605	0.050341
2634	26.340000	-0.070790	1.472303	-0.111607	-0.111445	1.242712	-0.065021	-0.062813	1.706746	0.175322	-0.016968	1.673357	0.207790	-0.020753	1.931459	0.261252	-0.011116	1.955066	0.213522	-0.146706	1.443030	0.096197	-0.065076	1.872357	0.239060	-0.056150	1.923652	0.255280	-0.057448	1.932217	0.228509	-0.067500	1.885873	0.196022	-0.105228	1.642200	0.102382	-0.130399	1.618026	0.151635	-0.162759	1.570179	0.124441	-0.136109	1.581392	0.073317	0.090884	1.393986	-0.016261	0.078618	1.368310	0.063332	0.064942	1.402709	0.018980	0.116078	1.355071	0.012254	0.020536	1.401817	-0.028531	0.064492	1.209610	0.070256	-0.125388	1.425836	0.064679	0.067396	1.385429	0.050522
2635	26.350000	-0.070599	1.472222	-0.111878	-0.111387	1.242881	-0.064194	-0.065359	1.709129	0.170674	-0.019264	1.676569	0.203626	-0.025171	1.935582	0.252898	-0.015837	1.958519	0.204782	-0.146578	1.443993	0.096047	-0.068959	1.875668	0.231770	-0.060437	1.927364	0.247157	-0.061867	1.935526	0.220207	-0.071612	1.888569	0.188526	-0.107202	1.643216	0.098700	-0.132219	1.619578	0.148261	-0.164185	1.571099	0.121752	-0.137540	1.581926	0.070395	0.091014	1.394352	-0.016117	0.078718	1.369112	0.063526	0.065039	1.403262	0.019052	0.116198	1.355528	0.012561	0.020671	1.402089	-0.028442	0.064501	1.210338	0.071282	-0.125667	1.426188	0.064018	0.067512	1.386134	0.050693
